<svg width="26" height="26" viewBox="0 0 26 26" fill="none" xmlns="http://www.w3.org/2000/svg">
<path d="M12.6667 0C14.3464 0 15.9573 0.66726 17.145 1.85499C18.3327 3.04272 19 4.65363 19 6.33333C19 8.01304 18.3327 9.62395 17.145 10.8117C15.9573 11.9994 14.3464 12.6667 12.6667 12.6667C10.987 12.6667 9.37605 11.9994 8.18832 10.8117C7.00059 9.62395 6.33333 8.01304 6.33333 6.33333C6.33333 4.65363 7.00059 3.04272 8.18832 1.85499C9.37605 0.66726 10.987 0 12.6667 0V0ZM12.6667 15.8333C19.665 15.8333 25.3333 18.6675 25.3333 22.1667V25.3333H0V22.1667C0 18.6675 5.66833 15.8333 12.6667 15.8333Z" fill="#EEBBC3"/>
</svg>
